<?xml version="1.0" encoding="utf-8"?>
<!-- Generator: Adobe Illustrator 15.0.2, SVG Export Plug-In . SVG Version: 6.00 Build 0)  -->
<!DOCTYPE svg PUBLIC "-//W3C//DTD SVG 1.1//EN" "http://www.w3.org/Graphics/SVG/1.1/DTD/svg11.dtd">
<svg version="1.1" id="Layer_1" xmlns="http://www.w3.org/2000/svg" xmlns:xlink="http://www.w3.org/1999/xlink" x="0px" y="0px"
	 width="140.951px" height="71.727px" viewBox="0 0 140.951 71.727" enable-background="new 0 0 140.951 71.727"
	 xml:space="preserve">
<g>
	<path fill="#DBDBD9" d="M0.823,45.654C6.27,75.914,44.701,71.5,44.701,71.5s0.917-16.579-2.878-36.097
		c-3.793-19.516-10.75-35.25-10.75-35.25S-5.927,8.154,0.823,45.654z"/>
	<polygon fill="#DBDBD9" points="44.701,71.5 30.951,0 140.951,0 	"/>
</g>
<g>
	<path fill="#FFFFFF" d="M2.976,45.095C9.476,71.726,44.701,71.5,44.701,71.5s-0.083-16.847-3.878-36.362
		C37.03,15.622,33.476,2.865,33.476,2.865S-2.358,7.53,2.976,45.095z"/>
	<polygon fill="#FFFFFF" points="44.701,71.5 33.476,2.863 140.951,0 	"/>
</g>
</svg>
