<?xml version="1.0" encoding="utf-8"?>
<!-- Generator: Adobe Illustrator 15.0.2, SVG Export Plug-In . SVG Version: 6.00 Build 0)  -->
<!DOCTYPE svg PUBLIC "-//W3C//DTD SVG 1.1//EN" "http://www.w3.org/Graphics/SVG/1.1/DTD/svg11.dtd">
<svg version="1.1" id="Layer_1" xmlns="http://www.w3.org/2000/svg" xmlns:xlink="http://www.w3.org/1999/xlink" x="0px" y="0px"
	 width="140.951px" height="71.727px" viewBox="0 0 140.951 71.727" enable-background="new 0 0 140.951 71.727"
	 xml:space="preserve">
<g>
	<path fill="#DBDBD9" d="M109.878,0.154c0,0-6.957,15.734-10.75,35.25C95.333,54.921,96.25,71.5,96.25,71.5
		s38.431,4.414,43.878-25.846C146.878,8.154,109.878,0.154,109.878,0.154z"/>
	<polygon fill="#DBDBD9" points="0,0 110,0 96.25,71.5 	"/>
</g>
<g>
	<path fill="#FFFFFF" d="M107.476,2.863c0,0-3.554,12.759-7.348,32.274C96.333,54.654,96.25,71.5,96.25,71.5
		s35.226,0.227,41.726-26.404C143.31,7.53,107.476,2.863,107.476,2.863z"/>
	<polygon fill="#FFFFFF" points="0,0 107.476,2.863 96.25,71.5 	"/>
</g>
</svg>
