<?xml version="1.0" encoding="utf-8"?>
<!-- Generator: Adobe Illustrator 15.0.2, SVG Export Plug-In . SVG Version: 6.00 Build 0)  -->
<!DOCTYPE svg PUBLIC "-//W3C//DTD SVG 1.1//EN" "http://www.w3.org/Graphics/SVG/1.1/DTD/svg11.dtd">
<svg version="1.1" id="Layer_1" xmlns="http://www.w3.org/2000/svg" xmlns:xlink="http://www.w3.org/1999/xlink" x="0px" y="0px"
	 width="75.061px" height="150.312px" viewBox="0 0 75.061 150.312" enable-background="new 0 0 75.061 150.312"
	 xml:space="preserve">
<g>
	<polygon fill="#DBDBD9" points="0,112.75 75.061,112.75 37.311,0 	"/>
	<path fill="#DBDBD9" d="M75.061,112.75c0,0-2.829,37.891-37.593,37.562C4.686,150,0,112.843,0,112.843s20.118-9.343,40.811-9.343
		S75.061,112.75,75.061,112.75z"/>
</g>
<polygon fill="#FFFFFF" points="2.864,113.157 72.697,113.157 37.061,1 "/>
<path fill="#FFFFFF" d="M72.697,113.157c0,0-1.833,34.167-34.833,33.833c-31.5-0.166-35-33.833-35-33.833s17.255-9.657,37.947-9.657
	S72.697,113.157,72.697,113.157z"/>
</svg>
