<?xml version="1.0" encoding="utf-8"?>
<!-- Generator: Adobe Illustrator 15.0.2, SVG Export Plug-In . SVG Version: 6.00 Build 0)  -->
<!DOCTYPE svg PUBLIC "-//W3C//DTD SVG 1.1//EN" "http://www.w3.org/Graphics/SVG/1.1/DTD/svg11.dtd">
<svg version="1.1" id="Layer_1" xmlns="http://www.w3.org/2000/svg" xmlns:xlink="http://www.w3.org/1999/xlink" x="0px" y="0px"
	 width="105.971px" height="129.941px" viewBox="0 0 105.971 129.941" enable-background="new 0 0 105.971 129.941"
	 xml:space="preserve">
<g>
	<path fill="#DBDBD9" d="M91.324,122.75c-26,20.75-54.25-10-54.25-10s11.696-8.439,26-22.25c14.301-13.811,33.176-19,33.176-19
		S121.106,98.981,91.324,122.75z"/>
	<polygon fill="#DBDBD9" points="37.074,112.75 96.25,71.5 0,0 	"/>
</g>
<path fill="#FFFFFF" d="M86.236,123.97c-27,17.75-50-12.25-50-12.25s8.946-7.189,23.25-21C73.786,76.91,93.75,75,93.75,75
	S116.017,100.202,86.236,123.97z"/>
<polygon fill="#FFFFFF" points="36.236,111.72 93.736,74.97 0,0 "/>
</svg>
