<?xml version="1.0" encoding="utf-8"?>
<!-- Generator: Adobe Illustrator 15.0.2, SVG Export Plug-In . SVG Version: 6.00 Build 0)  -->
<!DOCTYPE svg PUBLIC "-//W3C//DTD SVG 1.1//EN" "http://www.w3.org/Graphics/SVG/1.1/DTD/svg11.dtd">
<svg version="1.1" id="Layer_1" xmlns="http://www.w3.org/2000/svg" xmlns:xlink="http://www.w3.org/1999/xlink" x="0px" y="0px"
	 width="105.971px" height="129.941px" viewBox="0 0 105.971 129.941" enable-background="new 0 0 105.971 129.941"
	 xml:space="preserve">
<g>
	<path fill="#DBDBD9" d="M9.72,71.5c0,0,18.875,5.189,33.176,19c14.304,13.811,26,22.25,26,22.25s-28.25,30.75-54.25,10
		C-15.135,98.981,9.72,71.5,9.72,71.5z"/>
	<polygon fill="#DBDBD9" points="105.97,0 9.72,71.5 68.896,112.75 	"/>
</g>
<path fill="#FFFFFF" d="M12.22,75c0,0,19.964,1.91,34.265,15.721c14.304,13.811,23.25,21,23.25,21s-23,30-50,12.25
	C-10.047,100.202,12.22,75,12.22,75z"/>
<polygon fill="#FFFFFF" points="105.97,0 12.235,74.97 69.735,111.72 "/>
</svg>
